HIERARCHY
ROOT Hips
{
	OFFSET -0.179506 -22.333345 2.821913
	CHANNELS 6 Xposition Yposition Zposition Zrotation Yrotation Xrotation 
	JOINT LeftUpLeg
	{
		OFFSET 6.951974 -9.140623 -0.681533
		CHANNELS 3 Zrotation Yrotation Xrotation
		JOINT LeftLeg
		{
			OFFSET 3.427654 -37.519855 -0.449580
			CHANNELS 3 Zrotation Yrotation Xrotation
			JOINT LeftFoot
			{
				OFFSET -1.359570 -39.796059 -4.369333
				CHANNELS 3 Zrotation Yrotation Xrotation
				JOINT LeftToe
				{
					OFFSET 2.635814 -5.579078 11.928840
					CHANNELS 3 Zrotation Yrotation Xrotation
					End Site
					{
						OFFSET 0.000000 0.000000 0.000000
					}
				}
			}
		}
	}
	JOINT RightUpLeg
	{
		OFFSET -6.767048 -9.052170 -0.431982
		CHANNELS 3 Zrotation Yrotation Xrotation
		JOINT RightLeg
		{
			OFFSET -3.829005 -38.256897 -0.885003
			CHANNELS 3 Zrotation Yrotation Xrotation
			JOINT RightFoot
			{
				OFFSET 1.577377 -39.841461 -4.231180
				CHANNELS 3 Zrotation Yrotation Xrotation
				JOINT RightToe
				{
					OFFSET -2.537174 -4.814398 12.334795
					CHANNELS 3 Zrotation Yrotation Xrotation
					End Site
					{
						OFFSET 0.000000 0.000000 0.000000
					}
				}
			}
		}
	}
	JOINT Spine
	{
		OFFSET -0.253288 10.896323 -2.669631
		CHANNELS 3 Zrotation Yrotation Xrotation
		JOINT Spine1
		{
			OFFSET 0.548704 13.518043 0.109247
			CHANNELS 3 Zrotation Yrotation Xrotation
			JOINT Spine2
			{
				OFFSET 0.145701 5.292222 2.542457
				CHANNELS 3 Zrotation Yrotation Xrotation
				JOINT Neck
				{
					OFFSET -0.277840 21.387037 -4.285703
					CHANNELS 3 Zrotation Yrotation Xrotation
					JOINT Head
					{
						OFFSET 0.515184 6.496960 5.134897
						CHANNELS 3 Zrotation Yrotation Xrotation
						End Site
						{
							OFFSET 0.000000 0.000000 0.000000
						}
					}
				}
				JOINT LeftShoulder
				{
					OFFSET 7.884473 12.174932 -3.408961
					CHANNELS 3 Zrotation Yrotation Xrotation
					JOINT LeftArm
					{
						OFFSET 9.097692 3.046888 -0.886815
						CHANNELS 3 Zrotation Yrotation Xrotation
						JOINT LeftForeArm
						{
							OFFSET 25.961220 -1.277207 -2.745643
							CHANNELS 3 Zrotation Yrotation Xrotation
							JOINT LeftHand
							{
								OFFSET 24.923361 0.898606 -0.117091
								CHANNELS 3 Zrotation Yrotation Xrotation
								End Site
								{
									OFFSET 0.000000 0.000000 0.000000
								}
							}
						}
					}
				}
				JOINT RightShoulder
				{
					OFFSET -8.175920 11.883285 -3.861528
					CHANNELS 3 Zrotation Yrotation Xrotation
					JOINT RightArm
					{
						OFFSET -9.601238 3.255117 -0.914307
						CHANNELS 3 Zrotation Yrotation Xrotation
						JOINT RightForeArm
						{
							OFFSET -25.374195 -1.332924 -2.140099
							CHANNELS 3 Zrotation Yrotation Xrotation
							JOINT RightHand
							{
								OFFSET -25.529810 0.777228 -0.555919
								CHANNELS 3 Zrotation Yrotation Xrotation
								End Site
								{
									OFFSET 0.000000 0.000000 0.000000
								}
							}
						}
					}
				}
			}
		}
	}
}
MOTION
Frames: 13
Frame Time: 0.033333
-4.582042 56.411423 -0.787165 133.489979 -79.649198 145.616337 6.085482 3.423234 2.118823 -0.936578 -8.100001 -3.553350 -2.722423 8.995084 7.153615 -1.408280 0.093145 -2.088690 -2.762042 -8.500076 0.547406 7.027091 -0.308027 2.083599 8.405779 -12.796209 8.738712 -2.113540 0.436721 0.794501 -0.973534 -1.977899 9.892586 -1.967706 -1.751744 -16.537085 2.347152 -5.549374 10.979274 0.775682 -2.812564 -10.101878 1.994627 6.588422 -5.623871 1.514090 9.045105 5.311086 -18.146142 8.722501 -0.568256 -11.226391 -6.725749 17.210279 -9.815449 -6.688373 10.080196 -2.084772 -11.591344 0.359897 17.305677 -10.104211 -5.922594 -1.836194 1.831377 -0.997605 -4.260556 3.590408 13.058198 
-4.464595 56.456306 -0.678519 134.240541 -79.796202 144.767630 6.143601 3.429915 2.271508 -1.066746 -7.853777 -3.697513 -3.015639 8.802838 7.647398 -1.413953 0.110461 -2.059072 -2.804322 -8.523476 0.731452 6.986080 -0.408171 1.945828 8.364420 -12.975715 9.524688 -2.129325 0.436984 0.819599 -0.975674 -1.998018 9.911220 -1.933485 -1.755831 -16.577620 2.315709 -5.625421 10.914121 0.747763 -2.890721 -10.298501 1.957203 6.481628 -5.296363 1.228165 9.038698 5.245098 -18.438899 8.525891 -0.407697 -11.270169 -6.973141 17.292214 -10.191621 -6.730654 9.857977 -1.872725 -11.635924 0.283353 17.488594 -10.089047 -5.543869 -1.721443 1.953098 -0.897659 -3.768540 3.429278 13.085084 
-4.402566 56.497955 -0.606128 134.047934 -79.602761 144.907347 6.216875 3.501790 2.276720 -1.157999 -7.594189 -3.508340 -3.002281 8.668347 7.832627 -1.433287 0.158962 -2.001711 -2.772203 -8.490018 0.869010 6.969163 -0.408528 1.744543 8.348553 -13.040831 10.054614 -2.076631 0.487150 0.816344 -1.005454 -2.019897 9.890363 -1.821371 -1.750252 -16.452667 2.286603 -5.648088 10.645101 0.674396 -2.956188 -10.353522 1.855817 6.436600 -5.173191 0.998799 8.983651 5.244452 -18.285230 8.425076 -0.287160 -11.274442 -7.091477 17.282345 -10.501012 -6.679599 9.740542 -1.527094 -11.593285 0.212496 17.323231 -9.950740 -5.320285 -1.579086 2.094163 -0.944890 -3.392212 3.223821 13.250392 
-4.451763 56.536560 -0.553466 134.580662 -79.611682 144.546660 6.214838 3.510151 2.286799 -1.076018 -7.457557 -3.820691 -2.928492 8.587633 7.740940 -1.459769 0.202549 -1.936783 -2.726104 -8.391027 0.920150 7.027391 -0.165237 1.400485 8.199155 -13.316172 10.070305 -2.056093 0.507792 0.856198 -1.019917 -1.991556 9.842464 -1.790400 -1.781646 -16.424301 2.302540 -5.615257 10.715689 0.532992 -3.043700 -10.390864 1.876361 6.384242 -5.073103 0.957807 8.964182 5.039898 -17.793520 8.408439 -0.518084 -11.237470 -6.906117 16.814647 -11.175753 -6.689910 10.044956 -1.308881 -11.582620 0.069009 17.208454 -10.036766 -5.313633 -1.457347 2.023027 -0.773123 -2.598287 3.418557 13.380576 
-4.420518 56.574203 -0.863474 133.590784 -79.673795 145.608242 6.129823 3.459980 2.238375 -0.946375 -7.381739 -3.794283 -2.922040 8.574736 7.932936 -1.492385 0.237485 -1.837944 -2.671071 -8.273349 0.933766 6.999459 -0.026075 1.271611 7.875491 -13.605113 10.012373 -1.995657 0.574557 0.811753 -1.046240 -1.971035 9.768521 -1.739344 -1.744016 -16.228770 2.273343 -5.531191 10.615458 0.441419 -3.254715 -10.213462 1.816039 6.186217 -5.178203 1.146995 9.024707 4.921581 -16.858365 8.466082 -0.840118 -11.142257 -6.598257 16.027490 -11.559726 -6.559521 10.198987 -1.139453 -11.672591 -0.049844 16.796764 -10.210259 -5.212071 -1.368620 2.040536 -0.566253 -2.172173 3.478062 13.847121 
-4.349146 56.609917 -1.197867 130.959999 -79.384741 148.165251 6.031334 3.598223 2.110361 -0.959013 -7.410661 -3.219411 -2.842999 8.716967 8.105391 -1.478100 0.253705 -1.796658 -2.732629 -8.315719 0.865211 6.975532 0.155262 1.414492 7.741984 -13.609254 10.156110 -1.991781 0.715293 0.668867 -1.178691 -1.868755 9.794580 -1.598118 -1.677859 -16.202817 2.262782 -5.400774 10.520016 0.456191 -3.253452 -10.165453 1.762771 5.944540 -5.307808 1.568759 8.982485 4.895486 -15.511478 8.373945 -1.316419 -10.965884 -6.346185 14.764261 -11.093513 -6.456465 10.385022 -1.026181 -11.565536 -0.149454 16.171440 -10.230465 -5.378968 -1.296441 1.964738 -0.808994 -2.228228 3.507267 14.193029 
-4.372699 56.646164 -1.558581 130.759976 -79.781629 148.441000 5.918495 3.567576 2.022118 -0.786207 -7.658370 -3.204682 -2.976472 8.699986 8.011141 -1.393558 0.198624 -1.850230 -2.700817 -8.250492 0.898773 6.937082 0.518088 1.373553 7.345668 -14.103724 9.833220 -2.197551 0.932102 0.581367 -1.191514 -1.814388 9.748939 -1.567160 -1.569780 -16.137380 2.272785 -5.313534 10.436826 0.333475 -3.528159 -10.038782 1.764980 5.495795 -5.428879 2.051703 9.092323 4.701623 -13.486385 8.354279 -2.384492 -10.634999 -5.877123 12.833147 -10.650888 -6.497398 10.815255 -1.038616 -11.671635 -0.221461 15.320506 -10.503145 -5.667629 -1.189782 1.719891 -1.071923 -2.479051 3.811312 14.491186 
-4.430451 56.679390 -1.898623 130.464096 -80.119526 148.906351 5.759625 3.486166 1.908704 -0.532346 -7.975915 -3.325008 -2.917681 8.788034 7.894320 -1.381838 0.179473 -1.812864 -2.630985 -8.109427 0.777299 6.899974 0.847630 1.429703 6.864821 -14.609197 9.317188 -2.331409 1.109677 0.525871 -1.203566 -1.785189 9.712901 -1.555778 -1.498471 -16.002410 2.324706 -5.199283 10.366546 0.165477 -3.665511 -9.820687 1.723287 5.053395 -5.719363 2.665383 9.139037 4.296511 -10.494312 8.294057 -3.787560 -10.213544 -5.201312 10.383071 -9.825093 -6.813162 11.569332 -1.098401 -11.722192 -0.414279 14.079272 -10.600027 -5.834636 -1.187822 1.670195 -1.363889 -2.894261 4.214289 14.974828 
-4.414599 56.709694 -2.947638 126.946186 -80.538740 152.668650 5.458851 3.479875 1.852792 -0.113462 -8.544648 -3.697596 -3.077909 8.972387 8.481302 -1.319925 0.075603 -1.894951 -2.540581 -7.931555 0.721761 6.740155 1.438218 1.148251 6.130080 -15.472296 8.592841 -2.886369 1.438278 0.429239 -1.368975 -1.675611 9.659277 -1.556355 -1.416761 -16.010857 2.387220 -4.968626 10.536997 -0.070861 -4.058649 -9.507366 1.691514 4.245199 -6.322412 3.775980 9.168988 3.665150 -6.199865 8.207127 -5.876932 -9.786519 -4.093129 6.431737 -8.222430 -7.254600 12.276492 -1.401032 -11.790375 -0.626398 12.116951 -10.995701 -6.136000 -1.153956 1.500416 -1.821576 -3.851664 4.730792 15.470825 
-4.449830 56.738014 -4.139424 121.512601 -80.312318 158.379302 5.200730 3.632513 1.787375 0.316935 -9.017446 -3.893640 -3.166512 9.343619 8.890652 -1.253561 -0.093988 -2.058636 -2.421923 -7.752993 0.687021 6.625259 2.015706 0.670936 5.694569 -16.053495 7.543947 -3.783841 1.805653 0.294147 -1.592303 -1.511769 9.608609 -1.470847 -1.317313 -16.002296 2.532077 -4.616555 10.529622 -0.386565 -4.675963 -8.906693 1.895601 3.483436 -7.099431 5.136000 9.108433 2.959622 -1.578844 8.141221 -8.194030 -9.196404 -2.971744 1.348229 -6.037135 -7.498882 12.674499 -1.899243 -11.815704 -0.739008 9.933085 -11.411820 -6.482689 -1.365310 1.279426 -3.269251 -4.712269 4.696360 15.297189 
-4.782705 56.769295 -6.481109 113.615295 -80.139113 167.242635 5.125933 4.222766 1.136749 0.790145 -9.326691 -4.156010 -3.851357 9.159245 8.786151 -1.242667 -0.110686 -2.083651 -2.061580 -7.768316 -0.055782 6.658804 1.949906 0.470995 5.039654 -16.072662 4.403093 -4.691996 2.175993 0.293690 -1.584859 -1.397860 9.290030 -1.553353 -1.337323 -15.818940 2.808481 -4.069984 10.011972 -1.043924 -5.130932 -7.481371 2.195174 2.376447 -8.210497 7.053995 9.167650 1.322325 6.003017 8.286882 -11.795602 -7.630228 -2.230000 -5.928402 0.537208 -8.958503 13.985504 -2.808040 -12.104620 -0.771959 6.215019 -12.452196 -7.178755 -2.218121 0.787276 -6.378499 -8.478019 5.462798 15.674539 
-4.954505 56.812538 -6.717124 113.249323 -80.190053 168.199425 5.049499 4.046223 0.502100 0.960405 -9.888080 -4.069928 -3.461766 9.590498 8.431731 -1.178193 -0.385947 -2.321617 -1.767245 -7.571254 -0.692164 6.461355 2.040005 0.614182 4.910836 -16.434079 3.373733 -5.687687 2.498947 0.087809 -1.509798 -1.513095 9.407583 -1.424280 -1.298527 -15.690913 2.728352 -3.648784 9.316530 -1.431496 -5.508681 -6.517415 2.428394 2.085367 -8.663779 8.124401 8.980928 0.099943 10.247208 8.202465 -13.667511 -6.539299 -2.489592 -9.498193 5.212321 -10.507030 14.771393 -3.319210 -12.178157 -0.823686 3.969311 -12.618842 -7.516577 -3.280370 0.776410 -8.258129 -11.980115 6.160154 16.124244 
-4.982459 56.859077 -6.910906 112.257222 -79.728871 169.542188 5.068690 4.214780 0.401437 0.998109 -10.054403 -4.420514 -3.216052 9.802945 8.886547 -1.242773 -0.365953 -2.394887 -1.699896 -7.745134 -0.950666 6.456040 2.097501 0.342949 5.102894 -16.419993 3.396440 -5.898250 2.787209 -0.319017 -1.605969 -1.446220 9.559739 -1.456185 -1.248855 -15.819213 2.853190 -3.580307 9.416231 -1.572019 -5.731351 -5.951805 2.583418 1.331150 -8.956157 8.935289 8.668236 -0.157980 12.811946 8.233722 -14.959016 -6.173308 -2.709462 -11.919644 7.677921 -10.867973 14.598823 -3.975674 -11.888423 -0.787300 2.642035 -12.661649 -7.921119 -3.250293 0.926548 -9.303087 -13.541383 6.105562 15.932144 
